<svg xmlns="http://www.w3.org/2000/svg" version="1.1" viewBox="-5.0 -10.0 110.0 135.0">
 <g>
  <path d="m51.184 50.891c9.4766 0 17.188-7.7109 17.188-17.188s-7.7109-17.188-17.188-17.188c-9.4766 0-17.188 7.7109-17.188 17.188s7.7109 17.188 17.188 17.188zm-7.7305-22.707c-0.60938-0.60938-0.60938-1.5977 0-2.2109 0.60938-0.60938 1.5977-0.60938 2.2109 0l5.5195 5.5195 5.5195-5.5195c0.60938-0.60938 1.5977-0.60938 2.2109 0 0.60938 0.60938 0.60938 1.5977 0 2.2109l-5.5195 5.5195 5.5195 5.5195c0.60938 0.60938 0.60938 1.5977 0 2.2109-0.30469 0.30469-0.70312 0.45703-1.1055 0.45703-0.39844 0-0.80078-0.15234-1.1055-0.45703l-5.5195-5.5195-5.5195 5.5195c-0.30469 0.30469-0.70312 0.45703-1.1055 0.45703-0.39844 0-0.80078-0.15234-1.1055-0.45703-0.60938-0.60938-0.60938-1.5977 0-2.2109l5.5195-5.5195z"/>
  <path d="m12.121 83.484h10.219v-20.438h-10.219zm5.0938-17.031c0.9375 0 1.7188 0.78125 1.7188 1.7188s-0.78125 1.6875-1.7188 1.6875-1.6875-0.75-1.6875-1.6875 0.75-1.7188 1.6875-1.7188z"/>
  <path d="m86.934 51.734c-1.0625-1.0625-2.7188-1.25-4-0.4375l-28.094 19.844c-2.0312 1.4375-4.5938 1.9375-7 1.3125l-7.3438-2.6875c-0.90625-0.34375-1.3438-1.3125-1.0312-2.1875 0.34375-0.875 1.3125-1.3438 2.1875-1l7.1875 2.625c1.2812 0.3125 2.8125 0.03125 4.0312-0.84375l6.4062-4.5-9.1562-4.5938c-3.5312-1.75-7.6562-1.6875-11.094 0.25l-13.281 7.3125v13.188l26.25 3.125c1.375 0.1875 2.7812-0.21875 3.875-1.125l30.656-25.375c0.8125-0.625 1.2812-1.4688 1.3438-2.4062s-0.28125-1.8438-0.9375-2.5z"/>
 </g>
<text x="0.0" y="117.5" font-size="5.0" font-weight="bold" font-family="Arbeit Regular, Helvetica, Arial-Unicode, Arial, Sans-serif" fill="#000000">Created by suhaiba</text><text x="0.0" y="122.5" font-size="5.0" font-weight="bold" font-family="Arbeit Regular, Helvetica, Arial-Unicode, Arial, Sans-serif" fill="#000000">from Noun Project</text></svg>