<svg xmlns="http://www.w3.org/2000/svg" version="1.1" viewBox="-5.0 -10.0 110.0 135.0">
 <path d="m63.891 58.332v27.777c0 1.5273-1.25 2.7773-2.7773 2.7773h-19.445v5.5547c0 0.89062-0.41797 1.7227-1.168 2.25-0.47266 0.35938-1.0273 0.52734-1.6094 0.52734-0.30469 0-0.58203-0.054688-0.89062-0.14062l-33.332-11.105c-1.1094-0.39062-1.8906-1.4453-1.8906-2.6406v-66.664c0-1.1953 0.77734-2.25 1.8906-2.6406l33.332-11.109c0.85938-0.27734 1.7773-0.14062 2.5 0.39062 0.75 0.52734 1.168 1.3594 1.168 2.25v5.5547h19.445c1.5273 0 2.7773 1.25 2.7773 2.7773v27.777c0 1.5273-1.25 2.7773-2.7773 2.7773-1.5273 0-2.7773-1.25-2.7773-2.7773l-0.003907-25h-16.668v30.555h-8.332c-1.5273 0-2.7773 1.25-2.7773 2.7773s1.25 2.7773 2.7773 2.7773h8.332v30.555h16.668v-25c0-1.5273 1.25-2.7773 2.7773-2.7773s2.7773 1.25 2.7773 2.7773zm33.109-9.3867c-0.14062-0.33203-0.33203-0.66797-0.58203-0.91797l-8.332-8.332c-1.082-1.082-2.8594-1.082-3.9453 0-1.082 1.082-1.082 2.8594 0 3.9453l3.6094 3.582h-37.75c-1.5273 0-2.7773 1.25-2.7773 2.7773s1.25 2.7773 2.7773 2.7773h37.75l-3.6094 3.582c-1.082 1.082-1.082 2.8594 0 3.9453 0.55469 0.52734 1.25 0.80469 1.9727 0.80469 0.72266 0 1.418-0.27734 1.9727-0.80469l8.332-8.332c0.25-0.25 0.44531-0.58203 0.58203-0.91797 0.27734-0.66797 0.27734-1.4453 0-2.1094z"/>
<text x="0.0" y="117.5" font-size="5.0" font-weight="bold" font-family="Arbeit Regular, Helvetica, Arial-Unicode, Arial, Sans-serif" fill="#000000">Created by Humam</text><text x="0.0" y="122.5" font-size="5.0" font-weight="bold" font-family="Arbeit Regular, Helvetica, Arial-Unicode, Arial, Sans-serif" fill="#000000">from Noun Project</text></svg>