<svg xmlns="http://www.w3.org/2000/svg" data-name="Layer 1" viewBox="0 0 100 125" x="0px" y="0px"><path d="M28.5,87.5V75a1,1,0,0,0-1-1h-15a1,1,0,0,0-1,1V87.5a1,1,0,0,0,1,1h15A1,1,0,0,0,28.5,87.5Zm-2-1h-13V76h13Z"/><path d="M42.5,54.51a1,1,0,0,0-1,1v32a1,1,0,0,0,1,1h15a1,1,0,0,0,1-1v-32a1,1,0,0,0-1-1Zm14,32h-13v-30h13Z"/><path d="M87.5,25.74h-15a1,1,0,0,0-1,1V87.5a1,1,0,0,0,1,1h15a1,1,0,0,0,1-1V26.74A1,1,0,0,0,87.5,25.74Zm-1,60.76h-13V27.74h13Z"/><path d="M20,71a1,1,0,0,0,.69-.28L79,14.84V20a1,1,0,0,0,2,0V12.5a1,1,0,0,0-.07-.35l0-.09a.8.8,0,0,0-.15-.21l-.06-.08a1.45,1.45,0,0,0-.29-.19h0a.8.8,0,0,0-.34-.07H72.5a1,1,0,0,0,0,2h5L19.31,69.28a1,1,0,0,0,0,1.41A1,1,0,0,0,20,71Z"/><text x="0" y="115" fill="#000000" font-size="5px" font-weight="bold" font-family="'Helvetica Neue', Helvetica, Arial-Unicode, Arial, Sans-serif">Created by scribble.glyph</text><text x="0" y="120" fill="#000000" font-size="5px" font-weight="bold" font-family="'Helvetica Neue', Helvetica, Arial-Unicode, Arial, Sans-serif">from the Noun Project</text></svg>