<svg xmlns="http://www.w3.org/2000/svg" data-name="Layer 1" viewBox="0 0 100 125" x="0px" y="0px"><path d="M87.5,74h-15a1,1,0,0,0-1,1V87.5a1,1,0,0,0,1,1h15a1,1,0,0,0,1-1V75A1,1,0,0,0,87.5,74Zm-1,12.5h-13V76h13Z"/><path d="M42.5,53.85a1,1,0,0,0-1,1V87.5a1,1,0,0,0,1,1h15a1,1,0,0,0,1-1V54.85a1,1,0,0,0-1-1Zm14,32.65h-13V55.85h13Z"/><path d="M12.5,88.5h15a1,1,0,0,0,1-1V25a1,1,0,0,0-1-1h-15a1,1,0,0,0-1,1V87.5A1,1,0,0,0,12.5,88.5Zm1-62.5h13V86.5h-13Z"/><path d="M77.51,69h-5a1,1,0,0,0,0,2H80a1.09,1.09,0,0,0,.39-.08h0a1.45,1.45,0,0,0,.29-.19l.06-.08a.8.8,0,0,0,.15-.21l0-.09A1,1,0,0,0,81,70V62.5a1,1,0,0,0-2,0v5.16L20.69,11.78a1,1,0,0,0-1.38,1.44Z"/><text x="0" y="115" fill="#000000" font-size="5px" font-weight="bold" font-family="'Helvetica Neue', Helvetica, Arial-Unicode, Arial, Sans-serif">Created by scribble.glyph</text><text x="0" y="120" fill="#000000" font-size="5px" font-weight="bold" font-family="'Helvetica Neue', Helvetica, Arial-Unicode, Arial, Sans-serif">from the Noun Project</text></svg>