<svg xmlns="http://www.w3.org/2000/svg" xmlns:xlink="http://www.w3.org/1999/xlink" version="1.1" x="0px" y="0px" viewBox="0 0 100 125" style="enable-background:new 0 0 100 100;" xml:space="preserve"><path d="M18.5,36.53L5,79.46V23.35c0-1.55,1.26-2.81,2.81-2.81h23.51c1.06,0,2.03,0.6,2.51,1.55l3.9,7.8h44.88  c1.55,0,2.81,1.26,2.81,2.81v1.87H21.18C19.96,34.57,18.87,35.37,18.5,36.53z M92.19,39.71H25.57c-1.08,0-2.07,0.63-2.54,1.61  L5,79.46h72.82l16.9-35.74C95.61,41.86,94.25,39.71,92.19,39.71z"/><text x="0" y="115" fill="#000000" font-size="5px" font-weight="bold" font-family="'Helvetica Neue', Helvetica, Arial-Unicode, Arial, Sans-serif">Created by Alfonso Juan Dillera</text><text x="0" y="120" fill="#000000" font-size="5px" font-weight="bold" font-family="'Helvetica Neue', Helvetica, Arial-Unicode, Arial, Sans-serif">from the Noun Project</text></svg>