<svg xmlns="http://www.w3.org/2000/svg" viewBox="0 0 66 82.5" x="0px" y="0px"><path fill="#000000" d="M470,306 L470,301.001665 C470,299.893547 469.104218,299 467.994202,299 L464.005798,299 C462.899449,299 462,299.897081 462,301 L462,302 C462,302.552285 461.552285,303 461,303 C460.447715,303 460,302.552285 460,302 L460,301 C460,298.791329 461.796059,297 464.005798,297 L467.994202,297 C470.207671,297 472,298.787858 472,301.001665 L472,306 L473,306 C473.552285,306 474,306.447715 474,307 L474,317 C474,317.552285 473.552285,318 473,318 L459,318 C458.447715,318 458,317.552285 458,317 L458,307 C458,306.447715 458.447715,306 459,306 L470,306 Z M460,308 L460,316 L472,316 L472,308 L460,308 Z M475,361 L482,361 C482.552285,361 483,361.447715 483,362 C483,362.552285 482.552285,363 482,363 L418,363 C417.447715,363 417,362.552285 417,362 C417,361.447715 417.447715,361 418,361 L425,361 L425,346 C425,345.447715 425.447715,345 426,345 L441,345 L441,338 C441,337.447715 441.447715,337 442,337 L457,337 L457,324 C457,323.447715 457.447715,323 458,323 L474,323 C474.552285,323 475,323.447715 475,324 L475,361 Z M443,339 L443,361 L457,361 L457,339 L443,339 Z M459,325 L459,361 L473,361 L473,325 L459,325 Z M427,347 L427,361 L441,361 L441,347 L427,347 Z" transform="translate(-417 -297)"/><text x="0" y="81" fill="#000000" font-size="5px" font-weight="bold" font-family="'Helvetica Neue', Helvetica, Arial-Unicode, Arial, Sans-serif">Created by Andrejs Kirma</text><text x="0" y="86" fill="#000000" font-size="5px" font-weight="bold" font-family="'Helvetica Neue', Helvetica, Arial-Unicode, Arial, Sans-serif">from the Noun Project</text></svg>