<svg xmlns="http://www.w3.org/2000/svg" version="1.1" viewBox="-5.0 -10.0 110.0 135.0">
 <path d="m30.957 30.801c6.0781 0 11.582 2.4648 15.562 6.4453 3.9844 3.9844 6.4453 9.4883 6.4453 15.562 0 6.0781-2.4648 11.582-6.4453 15.562-3.9844 3.9844-9.4844 6.4453-15.562 6.4453-3.3008 0-6.4258-0.72656-9.2383-2.0273l-2.1562 3.7344c0.75 0.75391 1.2734 1.6836 1.5391 2.6797 0.39453 1.4805 0.23047 3.1172-0.59766 4.5469l-5.5039 9.5273c-0.82422 1.4375-2.1602 2.3984-3.6406 2.7969-1.4805 0.39453-3.1172 0.23047-4.5469-0.59766l-0.73438-0.42578c-1.4336-0.82422-2.3984-2.1602-2.7969-3.6406-0.39844-1.4805-0.23047-3.1172 0.59766-4.5508l5.5938-9.6719c0.83203-1.3555 2.1289-2.2656 3.5547-2.6484 0.99609-0.26562 2.0586-0.27734 3.0859-0.003906l2.1602-3.7383c-1.0273-0.72656-1.9922-1.5391-2.8789-2.4258-3.9844-3.9844-6.4453-9.4844-6.4453-15.562s2.4648-11.582 6.4453-15.562c3.9844-3.9844 9.4883-6.4453 15.562-6.4453zm53.316 7.3398c0-1.1055 0.89453-2 2-2 1.1055 0 2 0.89453 2 2v0.42578c0 1.1055-0.89453 2-2 2-1.1055 0-2-0.89453-2-2zm-4.6484-23.781c0 1.1055-0.89453 2-2 2s-2-0.89453-2-2c0-2.9375 1.1914-5.6016 3.1172-7.5273 1.9258-1.9258 4.5898-3.1172 7.5273-3.1172 2.9414 0 5.6016 1.1914 7.5273 3.1172l0.11719 0.125c1.8555 1.918 3 4.5312 3 7.4023 0 1.9414-0.52734 3.7695-1.4414 5.3438-0.94531 1.625-2.3125 2.9805-3.9492 3.9102-1.0391 0.58984-1.8594 1.3984-2.4102 2.3477-0.55078 0.94531-0.84375 2.0586-0.84375 3.2656v2.0547c0 1.1055-0.89453 2-2 2s-2-0.89453-2-2v-2.0547c0-1.9141 0.48438-3.707 1.3906-5.2656 0.90234-1.5547 2.2266-2.8672 3.8984-3.8164 1.0156-0.57812 1.8711-1.4258 2.4648-2.4453 0.56641-0.97656 0.89453-2.1211 0.89453-3.3398 0-1.7969-0.70703-3.4219-1.8477-4.6094l-0.097656-0.089844c-1.2031-1.2031-2.8672-1.9453-4.6992-1.9453-1.8359 0-3.4961 0.74219-4.6992 1.9453s-1.9453 2.8672-1.9453 4.6992zm15.906 33.078 0.73047-0.68359-1.3672-1.4609c-0.70312 0.65625-1.2891 1.1797-1.875 1.6602-1.1328-1.082-2.4414-1.875-3.8477-2.3906-1.7227-0.62891-3.5859-0.82812-5.4414-0.60156-2.4844 0.30469-4.9766 1.3789-7.1289 3.2109l-1.2773 1.125c-2.6562 2.3867-5.7852 5.1953-11.141 5.1953-1.1055 0-2 0.89453-2 2 0 1.1055 0.89453 2 2 2 6.8789 0 10.629-3.3672 13.812-6.2227l1.1953-1.0625c0.64062-0.54688 1.3242-0.99609 2.0273-1.3516l-0.19141 0.25c2.2578 1.7266 2.9688 2.1641 5.8086 2.6406l0.33203-1.9727c-1.7266-0.28906-2.707-0.51953-4.0938-1.6211 0.38281-0.097656 0.76172-0.17188 1.1445-0.21875 1.2461-0.15234 2.4805-0.027344 3.5977 0.38281 1.1055 0.40234 2.125 1.0859 2.957 2.0508 1.0977 1.2734 1.8828 3.0586 2.168 5.3711 0.13281 1.0938 1.1328 1.875 2.2266 1.7422 1.0938-0.13281 1.875-1.1328 1.7422-2.2266-0.33594-2.7461-1.2539-5.0117-2.5547-6.7812 0.38281-0.3125 0.76953-0.64844 1.1797-1.0273zm-30.941-18.738-0.91406-0.40234-0.80859 1.8281c0.90234 0.39844 1.6211 0.74219 2.5 1.1875l0.90625-1.7852c-0.55859-0.28516-1.1094-0.57422-1.6836-0.82812zm5.8281 4.1367-0.70703-0.70703-1.4102 1.418c1.4766 1.4688 2.6211 2.7578 3.9258 4.3828l1.5586-1.2539c-1.0742-1.3398-2.1406-2.6367-3.3633-3.8438zm6.3594 7.9141-0.58203-0.8125-1.625 1.1641c1.1797 1.6445 2.3438 3.25 3.5781 4.8555l1.5859-1.2188c-1.0156-1.3203-1.9844-2.6367-2.957-3.9883zm18.074 20.82c1.1055 0 2 0.89453 2 2 0 1.1055-0.89453 2-2 2h-33.094v3.0117c0 1.1055-0.89453 2-2 2-1.1055 0-2-0.89453-2-2v-3.0117h-3.0117c-1.1055 0-2-0.89453-2-2 0-1.1055 0.89453-2 2-2h3.0117v-33.094c0-1.1055 0.89453-2 2-2 1.1055 0 2 0.89453 2 2v33.094zm-78.535 17.445-0.85156-0.48828c-0.44922-0.21875-0.94922-0.25391-1.4102-0.13281-0.46094 0.12109-0.875 0.40234-1.1484 0.8125l-5.5742 9.6523c-0.27344 0.47266-0.32422 1.0195-0.19141 1.5195 0.13281 0.49609 0.45703 0.94531 0.92969 1.2188l0.74219 0.42578c0.47266 0.27344 1.0195 0.32422 1.5195 0.19531 0.49609-0.13281 0.94531-0.45703 1.2188-0.92969l5.5039-9.5352c0.27344-0.47266 0.32422-1.0195 0.19531-1.5195-0.13281-0.49609-0.45703-0.94531-0.92969-1.2227zm27.379-38.945c-3.2578-3.2578-7.7617-5.2734-12.734-5.2734-4.9727 0-9.4766 2.0156-12.734 5.2734-3.2578 3.2578-5.2734 7.7617-5.2734 12.734 0 4.9727 2.0156 9.4766 5.2734 12.734 3.2578 3.2578 7.7617 5.2734 12.734 5.2734 4.9727 0 9.4766-2.0156 12.734-5.2734 3.2578-3.2578 5.2734-7.7617 5.2734-12.734 0-4.9727-2.0156-9.4766-5.2734-12.734z"/>
<text x="0.0" y="117.5" font-size="5.0" font-weight="bold" font-family="Arbeit Regular, Helvetica, Arial-Unicode, Arial, Sans-serif" fill="#000000">Created by syahruni</text><text x="0.0" y="122.5" font-size="5.0" font-weight="bold" font-family="Arbeit Regular, Helvetica, Arial-Unicode, Arial, Sans-serif" fill="#000000">from Noun Project</text></svg>