<svg xmlns="http://www.w3.org/2000/svg" version="1.1" viewBox="-5.0 -10.0 110.0 135.0">
 <path d="m14.277 94.996c-5.1133 0-9.2773-4.1641-9.2773-9.2734v-52.312c0-2.207 0.73047-4.2148 2.1523-5.9219l15.887-19.133c1.8008-2.1719 4.3164-3.3555 7.1289-3.3555h5.5117v18.816c0 5.1094 4.1641 9.2734 9.2734 9.2734h22.797c5.1133 0 9.2812-4.1641 9.2812-9.2734l-0.003906-18.812h8.6953c5.1172 0 9.2812 4.1641 9.2812 9.2734v71.445c0 5.1133-4.1641 9.2734-9.2812 9.2734h-8.6953v-32.41c0-5.1094-4.1641-9.2734-9.2812-9.2734h-35.492c-5.1133 0-9.2812 4.1641-9.2812 9.2734v32.41zm30.945-75.949c0 1.3281 1.082 2.4062 2.4062 2.4062 1.3242 0 2.4062-1.0781 2.4062-2.4062v-7.1211c0-1.3281-1.082-2.4062-2.4062-2.4062-1.3242 0-2.4062 1.0781-2.4062 2.4062zm26.988 75.949v-32.41c0-2.457-2.0039-4.4648-4.4648-4.4648h-35.492c-2.4609 0-4.4727 2.0117-4.4727 4.4648v32.41zm-31.727-89.992v18.816c0 2.457 2.0117 4.4648 4.4648 4.4648h22.797c2.4609 0 4.4648-2.0117 4.4648-4.4648v-18.816z" fill-rule="evenodd"/>
<text x="0.0" y="117.5" font-size="5.0" font-weight="bold" font-family="Arbeit Regular, Helvetica, Arial-Unicode, Arial, Sans-serif" fill="#000000">Created by Asa Kharisma Dini</text><text x="0.0" y="122.5" font-size="5.0" font-weight="bold" font-family="Arbeit Regular, Helvetica, Arial-Unicode, Arial, Sans-serif" fill="#000000">from Noun Project</text></svg>