<svg xmlns="http://www.w3.org/2000/svg" xmlns:xlink="http://www.w3.org/1999/xlink" version="1.1" x="0px" y="0px" viewBox="0 0 34 42.5" enable-background="new 0 0 34 34" xml:space="preserve"><g><path d="M32,16.00522H17.00519v-5.79169c0-0.13806-0.11194-0.25-0.25-0.25h-3.5c-0.13806,0-0.25,0.11194-0.25,0.25v5.79169h-1   V5.21353c0-0.13806-0.11194-0.25-0.25-0.25h-3.5c-0.13806,0-0.25,0.11194-0.25,0.25v10.79169H7.03644V1.21353   c0-0.13806-0.11194-0.25-0.25-0.25h-3.5c-0.13806,0-0.25,0.11194-0.25,0.25v14.79169H2c-0.55273,0-1,0.44727-1,1s0.44727,1,1,1   h15.03644v5.78125c0,0.13806,0.11194,0.25,0.25,0.25h3.5c0.13806,0,0.25-0.11194,0.25-0.25v-5.78125h1v10.78125   c0,0.13806,0.11194,0.25,0.25,0.25h3.5c0.13806,0,0.25-0.11194,0.25-0.25V18.00522h0.96875v14.78125   c0,0.13806,0.11194,0.25,0.25,0.25h3.5c0.13806,0,0.25-0.11194,0.25-0.25V18.00522H32c0.55273,0,1-0.44727,1-1   S32.55273,16.00522,32,16.00522z"/><path d="M21.97949,9.98471h3v3c0,0.55273,0.44727,1,1,1s1-0.44727,1-1v-3h3c0.55273,0,1-0.44727,1-1s-0.44727-1-1-1h-3v-3   c0-0.55273-0.44727-1-1-1s-1,0.44727-1,1v3h-3c-0.55273,0-1,0.44727-1,1S21.42676,9.98471,21.97949,9.98471z"/><path d="M11.0625,24.06772h-8c-0.55273,0-1,0.44727-1,1s0.44727,1,1,1h8c0.55273,0,1-0.44727,1-1   S11.61523,24.06772,11.0625,24.06772z"/></g><text x="0" y="49" fill="#000000" font-size="5px" font-weight="bold" font-family="'Helvetica Neue', Helvetica, Arial-Unicode, Arial, Sans-serif">Created by Vectors Point</text><text x="0" y="54" fill="#000000" font-size="5px" font-weight="bold" font-family="'Helvetica Neue', Helvetica, Arial-Unicode, Arial, Sans-serif">from the Noun Project</text></svg>